<?xml version="1.0" encoding="utf-8"?>
<!-- Generator: Adobe Illustrator 28.3.0, SVG Export Plug-In . SVG Version: 6.00 Build 0)  -->
<svg version="1.1" id="Layer_2_00000028315606376293388680000013379155271052086421_"
	 xmlns="http://www.w3.org/2000/svg" xmlns:xlink="http://www.w3.org/1999/xlink" x="0px" y="0px" viewBox="0 0 179.1 46.6"
	 style="enable-background:new 0 0 179.1 46.6;" xml:space="preserve">
<style type="text/css">
	.st0{fill:#FFFFFF;}
</style>
<g>
	<path class="st0" d="M42.2,5.2l-1.9-0.7c-0.1,0-0.1,0-0.2,0l-3.8,0.8c-0.1,0-0.2,0-0.2,0l-9-5.2C27,0,26.8,0,26.7,0.1l-0.4,0.4
		c-0.1,0.1-0.1,0.3-0.1,0.4l3.5,6c0.1,0.2,0,0.4-0.1,0.4l-4.9,2.2c-0.1,0-0.2,0-0.3,0l-2-1.1c-0.3-0.1-0.6,0.1-0.4,0.4l0.7,1.3
		c-5.8,0.6-11.1,4.5-13.4,9.9c-0.6,1.3-1,2.7-1.3,4.1c1.2,0.2,2.5,0.4,3.9,0.5c0.4-2.8,1.6-5.6,3.8-8.1c1.9-2.2,4.5-3.9,7.5-4.9
		c0,0,0,0.1,0,0.1l0.1,1.8c0,0.3,0.4,0.4,0.6,0.1l1.1-2c0-0.1,0.1-0.1,0.2-0.2l5.3-0.6c0.2,0,0.3,0.1,0.4,0.3l0.4,6.7
		c0,0.1,0.1,0.2,0.2,0.3l0.6,0.1c0.1,0,0.3,0,0.4-0.2l4.7-8.9C37,9,37,9,37.1,8.9l4.4-1.7c0.1,0,0.1-0.1,0.2-0.2l0.7-1.4
		C42.5,5.5,42.4,5.3,42.2,5.2L42.2,5.2z"/>
	<g>
		<path class="st0" d="M47,39.7c-0.7,1-1.7,1.7-2.9,2.2c-1.3,0.5-2.7,0.8-4.4,0.7c-1.3,0-2.5-0.3-3.4-0.9c-1-0.6-1.8-1.4-2.3-2.5
			s-0.9-2.3-1-3.7c-0.1-1.1,0.1-2.6,0.4-4.4c0.3-1.9,0.9-3.5,1.8-4.8c0.8-1.4,1.9-2.4,3.1-3.1c1.2-0.7,2.7-1.1,4.3-1
			c1.9,0,3.3,0.6,4.5,1.7c1.1,1.1,1.7,2.6,1.9,4.5h-2.6c-0.1-1.3-0.5-2.2-1.1-2.9s-1.6-1-2.7-1.1c-1.7-0.1-3.2,0.6-4.3,1.9
			c-1.2,1.3-1.9,3.2-2.3,5.7l-0.3,1.9l0,1c0,1.8,0.4,3.2,1.1,4.2c0.7,1,1.8,1.5,3.1,1.5c1.9,0,3.5-0.4,4.6-1.4l0.8-4.5h-4.5l0.4-2.2
			h7L47,39.7L47,39.7z"/>
		<path class="st0" d="M58.4,42.6c-1.3,0-2.4-0.3-3.3-0.9c-0.9-0.6-1.7-1.5-2.2-2.6C52.3,38,52,36.7,52,35.3
			c-0.1-1.1,0.1-2.5,0.4-4.1c0.3-1.6,0.8-3.1,1.6-4.4c0.7-1.3,1.7-2.4,2.7-3.1c1.4-1.1,3.1-1.6,4.9-1.5c2,0,3.5,0.7,4.6,2
			s1.7,3.1,1.8,5.4c0,1-0.1,2.2-0.3,3.7c-0.2,1.5-0.7,2.9-1.2,4.1c-0.6,1.3-1.4,2.3-2.3,3.2C62.5,42,60.6,42.7,58.4,42.6L58.4,42.6z
			 M65.4,30.1c0.1-1.8-0.3-3.2-0.9-4.2s-1.7-1.5-3.1-1.5c-1.2,0-2.3,0.3-3.3,1c-1,0.7-1.8,1.7-2.4,3.1c-0.6,1.4-1,3.1-1.2,5.3l0,0.9
			c0,1.8,0.3,3.2,1,4.2c0.7,1,1.7,1.5,3,1.6c1.7,0,3.2-0.6,4.3-1.9c1.1-1.3,1.9-3.1,2.3-5.5C65.3,31.9,65.4,30.9,65.4,30.1z"/>
		<path class="st0" d="M75.9,42.6c-1,0-1.9-0.3-2.7-0.7c-0.8-0.5-1.4-1.1-1.9-2s-0.7-1.9-0.8-3c-0.1-1.2,0.1-2.4,0.4-3.7
			c0.3-1.3,0.8-2.5,1.6-3.5c0.7-1,1.6-1.8,2.6-2.2c1-0.5,2-0.7,3.2-0.7c1,0,2,0.3,2.7,0.7s1.4,1.1,1.8,2c0.4,0.9,0.7,1.9,0.8,3
			c0.1,1.2-0.1,2.5-0.4,3.9c-0.3,1.3-0.9,2.5-1.6,3.4s-1.6,1.7-2.5,2.2S77,42.6,75.9,42.6L75.9,42.6z M80.4,34.2l0.1-1
			c0.1-1.3-0.1-2.2-0.5-2.9c-0.4-0.6-1-1-1.9-1c-1.3,0-2.3,0.5-3.1,1.7c-0.8,1.2-1.2,2.9-1.3,5c-0.1,1.3,0.1,2.2,0.5,2.9
			s1,1,1.9,1.1c1.1,0,2-0.4,2.8-1.3c0.7-0.9,1.2-2.2,1.4-3.9C80.3,34.8,80.4,34.2,80.4,34.2z"/>
		<path class="st0" d="M98.8,26.8l-1.8,10.2c-0.2,1.7-0.9,3.1-2.1,4.1s-2.6,1.5-4.4,1.5c-1.1,0-2.1-0.3-2.8-0.7
			c-0.8-0.5-1.4-1.1-1.8-1.9s-0.5-1.8-0.4-2.8l1.7-10.2h3.1l-1.7,10.3c-0.1,0.4-0.1,0.8,0,1.1c0.1,1.2,0.8,1.8,2.1,1.8
			c0.9,0,1.6-0.2,2.2-0.7s0.9-1.2,1.1-2.2l1.8-10.2L98.8,26.8L98.8,26.8z"/>
		<path class="st0" d="M112.5,29.4h-4.6l-2.2,12.9h-3.1l2.2-12.9h-4.6l0.5-2.6H113L112.5,29.4L112.5,29.4z"/>
		<path class="st0" d="M122.5,36h-5.9l-1.1,6.3h-3.1l2.7-15.5h9.8l-0.5,2.6h-6.7l-0.7,4h6L122.5,36L122.5,36z"/>
		<path class="st0" d="M127.6,42.4h-3.1l2.7-15.5h3.1C130.3,26.8,127.6,42.4,127.6,42.4z"/>
		<path class="st0" d="M134.3,39.8h6.6l-0.4,2.6h-9.7l2.7-15.5h3.1L134.3,39.8L134.3,39.8z"/>
		<path class="st0" d="M154,29.4h-4.6l-2.2,12.9H144l2.2-12.9h-4.6l0.5-2.6h12.3L154,29.4z"/>
		<path class="st0" d="M164,35.6h-5.9l-0.7,4.2h7l-0.4,2.6h-10.1l2.7-15.5h10.1l-0.5,2.6h-7l-0.6,3.7h6L164,35.6L164,35.6z"/>
		<path class="st0" d="M172.7,36.7h-2.5l-1,5.7H166l2.7-15.5h5.1c1.7,0,3,0.4,4,1.2c0.9,0.8,1.3,1.9,1.2,3.4
			c-0.1,2.1-1.3,3.6-3.4,4.4l2.2,6.3v0.2h-3.3L172.7,36.7L172.7,36.7z M170.6,34.1l2.3,0c0.8,0,1.5-0.2,2-0.7c0.5-0.4,0.9-1,1-1.7
			c0.1-0.7,0-1.2-0.3-1.6c-0.3-0.4-0.8-0.6-1.5-0.6h-2.7L170.6,34.1L170.6,34.1z"/>
	</g>
	<path class="st0" d="M30.9,20.8c0-3.4-8-5-15.5-5C8,15.8,0,17.4,0,20.8c0,0.1,0,0.1,0,0.2c0,0.1,0,0.2,0.1,0.4c0,0.1,0,0.1,0,0.2
		c0.3,0.8,1,1.5,2,2c0.6,0.3,1.3,0.6,2,0.8c0.6,0.2,1.2,0.3,1.8,0.5c0.6,0.1,1.2,0.2,1.8,0.3c1.3,0.2,2.6,0.4,4,0.5
		c1.2,0.1,2.5,0.1,3.8,0.1c3.3,0,6.8-0.3,9.6-1L18,33.9c-0.3,0.4-0.5,0.9-0.5,1.4v7.2c0,0-0.1,0.1-0.1,0.1l-3.7,1.8c0,0,0,0-0.1,0
		c-0.1,0-0.1-0.1-0.1-0.1v-9c0-0.5-0.2-1-0.5-1.4L6,24.9c-0.6-0.1-1.2-0.3-1.8-0.5c-0.7-0.2-1.4-0.5-2-0.8l9.2,11.8v9
		c0,0.8,0.4,1.5,1.1,1.9c0.4,0.2,0.8,0.4,1.2,0.4c0.3,0,0.7-0.1,1-0.2l3.7-1.7c0.8-0.4,1.3-1.2,1.3-2.1l0-7.3l9.2-11.8c0,0,0,0,0,0
		C30.2,22.8,30.9,21.9,30.9,20.8L30.9,20.8C30.9,20.8,30.9,20.8,30.9,20.8z M2.2,20.8C2.3,19.9,6.9,18,15.5,18
		c8.6,0,13.2,2,13.3,2.8c0,0,0,0.1,0,0.1c-0.2,0.2-0.9,0.7-1.2,0.9c-1.9,0.9-6,1.8-12,1.8c-1,0-2,0-2.9-0.1c-0.1,0-0.1,0-0.2,0
		c-0.3,0-0.6,0-0.9-0.1c-0.3,0-0.6-0.1-0.9-0.1c-0.6-0.1-1.2-0.1-1.7-0.2c-0.1,0-0.1,0-0.2,0c-1.5-0.2-2.7-0.5-3.7-0.8
		c-0.6-0.2-1.3-0.5-1.3-0.5c0,0-0.1,0-0.1,0C2.6,21.3,2.2,21,2.2,20.8L2.2,20.8C2.2,20.8,2.2,20.8,2.2,20.8z"/>
</g>
</svg>
