<?xml version="1.0" encoding="utf-8"?>
<!-- Generator: Adobe Illustrator 28.2.0, SVG Export Plug-In . SVG Version: 6.00 Build 0)  -->
<svg version="1.1" id="Layer_1" xmlns="http://www.w3.org/2000/svg" xmlns:xlink="http://www.w3.org/1999/xlink" x="0px" y="0px"
	 viewBox="0 0 179.1 46.6" style="enable-background:new 0 0 179.1 46.6;" xml:space="preserve">
<style type="text/css">
	.st0{fill:#3554D1;}
	.st1{fill:#0D2857;}
	.st2{fill:#FFFFFF;stroke:#3554D1;stroke-width:2.1835;stroke-miterlimit:10;}
	.st3{fill:none;stroke:#3554D1;stroke-width:2.1835;stroke-miterlimit:10;}
	.st4{fill:#FFFFFF;}
	.st5{fill:none;stroke:#FFFFFF;stroke-width:2.1835;stroke-miterlimit:10;}
	.st6{fill:#F1F2F2;}
	.st7{fill:#FFFFFF;stroke:#3554D1;stroke-width:4.8008;stroke-miterlimit:10;}
	.st8{fill:none;stroke:#3554D1;stroke-width:4.8008;stroke-miterlimit:10;}
</style>
<rect x="-1203" y="-226.9" class="st0" width="106.5" height="106.5"/>
<rect x="-1203" y="-107.5" class="st1" width="106.5" height="106.5"/>
<image style="overflow:visible;" width="128" height="128" xlink:href="4DC05304.jpg"  transform="matrix(1 0 0 1 -1108.9581 -545.663)">
</image>
<image style="overflow:visible;" width="626" height="626" xlink:href="4DC0530C.jpg"  transform="matrix(1 0 0 1 -1912.0466 -389.6314)">
</image>
<g>
	<path class="st0" d="M-757.4,38.5c-0.7,0.9-1.6,1.7-2.9,2.2c-1.3,0.5-2.7,0.8-4.4,0.7c-1.3,0-2.5-0.3-3.4-0.9
		c-1-0.6-1.8-1.4-2.3-2.5c-0.6-1.1-0.9-2.3-1-3.7c-0.1-1.1,0.1-2.6,0.4-4.4s0.9-3.5,1.8-4.8c0.8-1.4,1.9-2.4,3.1-3.1
		c1.3-0.7,2.7-1.1,4.3-1c1.9,0,3.3,0.6,4.5,1.7c1.1,1.1,1.7,2.6,1.9,4.5h-2.6c-0.1-1.3-0.5-2.2-1.1-2.9s-1.6-1-2.7-1.1
		c-1.7-0.1-3.2,0.6-4.3,1.9c-1.2,1.3-1.9,3.2-2.3,5.7l-0.3,1.9l0,1c0,1.8,0.4,3.2,1.1,4.2s1.8,1.5,3.1,1.5c1.9,0,3.5-0.4,4.6-1.4
		l0.8-4.5h-4.5l0.4-2.2h7.1L-757.4,38.5z"/>
	<path class="st0" d="M-746,41.4c-1.3,0-2.4-0.3-3.3-0.9c-0.9-0.6-1.7-1.5-2.2-2.6c-0.5-1.1-0.8-2.4-0.9-3.8
		c-0.1-1.1,0.1-2.5,0.4-4.1c0.3-1.6,0.8-3.1,1.6-4.4c0.7-1.3,1.6-2.4,2.7-3.2c1.4-1.1,3.1-1.6,4.9-1.5c2,0,3.5,0.7,4.6,2
		c1.1,1.3,1.7,3.1,1.8,5.3c0,1-0.1,2.2-0.3,3.7s-0.7,2.9-1.3,4.1c-0.6,1.3-1.4,2.3-2.3,3.2C-741.9,40.7-743.8,41.4-746,41.4z
		 M-739,28.8c0.1-1.8-0.3-3.2-0.9-4.2c-0.7-1-1.7-1.5-3.1-1.5c-1.2,0-2.3,0.3-3.3,1s-1.8,1.7-2.4,3.1s-1,3.2-1.2,5.3l0,0.9
		c-0.1,1.8,0.3,3.2,1,4.2c0.7,1,1.7,1.5,3,1.6c1.7,0,3.2-0.6,4.3-1.9c1.1-1.3,1.9-3.1,2.3-5.5C-739.1,30.6-739,29.6-739,28.8z"/>
	<path class="st1" d="M-728.5,41.3c-1,0-1.9-0.3-2.7-0.7c-0.8-0.5-1.4-1.1-1.9-2c-0.5-0.9-0.7-1.9-0.8-3c-0.1-1.2,0-2.4,0.4-3.7
		c0.3-1.3,0.9-2.5,1.6-3.5c0.7-1,1.6-1.8,2.6-2.2c1-0.5,2-0.7,3.2-0.7c1,0,2,0.3,2.7,0.7s1.4,1.2,1.8,2s0.7,1.9,0.8,3
		c0.1,1.3-0.1,2.5-0.4,3.9s-0.9,2.5-1.6,3.4s-1.6,1.7-2.5,2.2C-726.3,41.1-727.4,41.3-728.5,41.3z M-724.1,32.9l0.1-1
		c0.1-1.3-0.1-2.2-0.5-2.9c-0.4-0.7-1-1-1.9-1c-1.3,0-2.3,0.5-3.1,1.7c-0.8,1.2-1.2,2.9-1.3,5c-0.1,1.3,0.1,2.2,0.5,2.9
		c0.4,0.7,1,1,1.9,1.1c1.1,0,2-0.4,2.8-1.3c0.7-0.9,1.2-2.2,1.4-3.9L-724.1,32.9z"/>
	<path class="st1" d="M-705.6,25.6l-1.7,10.2c-0.2,1.7-1,3.1-2.1,4.1s-2.6,1.5-4.4,1.4c-1.1,0-2-0.3-2.9-0.7
		c-0.8-0.5-1.4-1.1-1.8-1.9s-0.5-1.8-0.4-2.8l1.7-10.2h3.1l-1.7,10.3c0,0.4-0.1,0.8,0,1.1c0.1,1.2,0.8,1.7,2.1,1.8
		c0.9,0,1.6-0.2,2.2-0.7s0.9-1.2,1.1-2.2l1.7-10.2H-705.6z"/>
	<path class="st1" d="M-691.9,28.2h-4.6l-2.2,12.9h-3.1l2.2-12.9h-4.6l0.5-2.6h12.3L-691.9,28.2z"/>
	<path class="st1" d="M-681.9,34.8h-5.9l-1.1,6.3h-3.1l2.7-15.5h9.8l-0.5,2.6h-6.7l-0.7,4h6L-681.9,34.8z"/>
	<path class="st1" d="M-676.8,41.1h-3.1l2.7-15.5h3.1L-676.8,41.1z"/>
	<path class="st1" d="M-670.1,38.5h6.6l-0.4,2.6h-9.7l2.7-15.5h3.1L-670.1,38.5z"/>
	<path class="st1" d="M-650.5,28.2h-4.6l-2.2,12.9h-3.1l2.2-12.9h-4.6l0.5-2.6h12.3L-650.5,28.2z"/>
	<path class="st1" d="M-640.4,34.4h-5.9l-0.7,4.2h7l-0.4,2.6h-10.1l2.7-15.5h10.1l-0.5,2.6h-7l-0.7,3.7h6L-640.4,34.4z"/>
	<path class="st1" d="M-631.7,35.4h-2.5l-1,5.7h-3.1l2.7-15.5l5.1,0c1.7,0,3,0.4,4,1.2c0.9,0.8,1.3,1.9,1.2,3.4
		c-0.1,2.1-1.3,3.6-3.4,4.4l2.2,6.3v0.2h-3.3L-631.7,35.4z M-633.8,32.8l2.3,0c0.8,0,1.5-0.2,2-0.7c0.5-0.4,0.9-1,1-1.8
		c0.1-0.7,0-1.2-0.3-1.6c-0.3-0.4-0.8-0.6-1.5-0.6l-2.7,0L-633.8,32.8z"/>
</g>
<path class="st2" d="M-801.8,21.2l9.6,12.2c0.2,0.2,0.3,0.5,0.3,0.7V43c0,0.9,0.9,1.5,1.7,1.1l3.7-1.7c0.4-0.2,0.7-0.6,0.7-1.1v-7.2
	c0-0.3,0.1-0.5,0.3-0.7l9.5-12.2"/>
<ellipse class="st3" cx="-789" cy="19.5" rx="14.4" ry="3.9"/>
<path class="st1" d="M-777.3-1.2l9,5.2c0.1,0,0.1,0.1,0.2,0l3.8-0.8c0.1,0,0.1,0,0.2,0l1.9,0.7c0.2,0.1,0.3,0.3,0.2,0.4l-0.7,1.4
	c0,0.1-0.1,0.1-0.2,0.2l-4.4,1.7c-0.1,0-0.1,0.1-0.2,0.1l-4.7,8.9c-0.1,0.1-0.2,0.2-0.4,0.2l-0.6-0.1c-0.1,0-0.2-0.1-0.2-0.3
	l-0.4-6.7c0-0.2-0.2-0.3-0.3-0.3l-5.3,0.6c-0.1,0-0.2,0.1-0.2,0.2l-1.1,2c-0.1,0.3-0.6,0.2-0.6-0.1l-0.1-1.8c0-0.1-0.1-0.3-0.3-0.3
	l-0.7-0.1l0.6-0.6c0.1-0.1,0.1-0.2,0-0.4l-0.8-1.4c-0.1-0.3,0.2-0.6,0.4-0.4l2,1.1c0.1,0,0.2,0.1,0.3,0l4.9-2.2
	c0.2-0.1,0.2-0.3,0.1-0.4l-3.5-6c-0.1-0.1,0-0.3,0.1-0.4l0.4-0.4C-777.6-1.3-777.5-1.3-777.3-1.2z"/>
<path class="st1" d="M-778.3,9v0.6c-4.3,0.6-8,2.7-10.6,5.6c-2.2,2.6-3.4,5.4-3.8,8.1c-1.4-0.1-2.7-0.3-3.9-0.4
	c0.2-1.4,0.7-2.8,1.3-4.1C-792.4,12.3-785.2,7.9-778.3,9z"/>
<path class="st3" d="M-803.3,19.5c0,1.4,2.7,2.6,6.8,3.3c1.2,0.2,2.5,0.4,3.9,0.4c1.2,0.1,2.4,0.1,3.7,0.1c7.9,0,14.4-1.7,14.4-3.9"
	/>
<g>
	<g>
		<path class="st0" d="M-555.6,39.7c-0.7,0.9-1.6,1.7-2.9,2.2c-1.3,0.5-2.7,0.8-4.4,0.7c-1.3,0-2.5-0.3-3.4-0.9
			c-1-0.6-1.8-1.4-2.3-2.5s-0.9-2.3-1-3.7c-0.1-1.1,0.1-2.6,0.4-4.4c0.3-1.9,0.9-3.5,1.8-4.8c0.8-1.4,1.9-2.4,3.1-3.1
			c1.3-0.7,2.7-1.1,4.3-1c1.9,0,3.3,0.6,4.5,1.7c1.1,1.1,1.7,2.6,1.9,4.5h-2.6c-0.1-1.3-0.5-2.2-1.1-2.9s-1.6-1-2.7-1.1
			c-1.7-0.1-3.2,0.6-4.3,1.9c-1.2,1.3-1.9,3.2-2.3,5.7l-0.3,1.9l0,1c0,1.8,0.4,3.2,1.1,4.2c0.7,1,1.8,1.5,3.1,1.5
			c1.9,0,3.5-0.4,4.6-1.4l0.8-4.5h-4.5l0.4-2.2h7L-555.6,39.7z"/>
		<path class="st0" d="M-544.2,42.6c-1.3,0-2.4-0.3-3.3-0.9c-0.9-0.6-1.7-1.5-2.2-2.6c-0.5-1.1-0.8-2.4-0.9-3.8
			c-0.1-1.1,0.1-2.5,0.4-4.1c0.3-1.6,0.8-3.1,1.6-4.4c0.7-1.3,1.6-2.4,2.7-3.2c1.4-1.1,3.1-1.6,4.9-1.5c2,0,3.5,0.7,4.6,2
			s1.7,3.1,1.8,5.3c0,1-0.1,2.2-0.3,3.7c-0.2,1.5-0.7,2.9-1.3,4.1c-0.6,1.3-1.4,2.3-2.3,3.2C-540,41.9-542,42.7-544.2,42.6z
			 M-537.1,30c0.1-1.8-0.3-3.2-0.9-4.2c-0.7-1-1.7-1.5-3.1-1.5c-1.2,0-2.3,0.3-3.3,1c-1,0.7-1.8,1.7-2.4,3.1c-0.6,1.4-1,3.2-1.2,5.3
			l0,0.9c-0.1,1.8,0.3,3.2,1,4.2c0.7,1,1.7,1.5,3,1.6c1.7,0,3.2-0.6,4.3-1.9c1.1-1.3,1.9-3.1,2.3-5.5
			C-537.3,31.9-537.2,30.9-537.1,30z"/>
		<path class="st1" d="M-526.6,42.6c-1,0-1.9-0.3-2.7-0.7c-0.8-0.5-1.4-1.1-1.9-2c-0.5-0.9-0.7-1.9-0.8-3c-0.1-1.2,0-2.4,0.4-3.7
			c0.3-1.3,0.9-2.5,1.6-3.5c0.7-1,1.6-1.8,2.6-2.2c1-0.5,2-0.7,3.2-0.7c1,0,2,0.3,2.7,0.7c0.8,0.5,1.4,1.2,1.8,2
			c0.4,0.9,0.7,1.9,0.8,3c0.1,1.3-0.1,2.5-0.4,3.9c-0.3,1.3-0.9,2.5-1.6,3.4s-1.6,1.7-2.5,2.2S-525.5,42.6-526.6,42.6z M-522.2,34.2
			l0.1-1c0.1-1.3-0.1-2.2-0.5-2.9c-0.4-0.7-1-1-1.9-1c-1.3,0-2.3,0.5-3.1,1.7c-0.8,1.2-1.2,2.9-1.3,5c-0.1,1.3,0.1,2.2,0.5,2.9
			s1,1,1.9,1.1c1.1,0,2-0.4,2.8-1.3c0.7-0.9,1.2-2.2,1.4-3.9L-522.2,34.2z"/>
		<path class="st1" d="M-503.8,26.8l-1.7,10.2c-0.2,1.7-1,3.1-2.1,4.1s-2.6,1.5-4.4,1.4c-1.1,0-2-0.3-2.9-0.7
			c-0.8-0.5-1.4-1.1-1.8-1.9s-0.5-1.8-0.4-2.8l1.7-10.2h3.1l-1.7,10.3c0,0.4-0.1,0.8,0,1.1c0.1,1.2,0.8,1.7,2.1,1.8
			c0.9,0,1.6-0.2,2.2-0.7s0.9-1.2,1.1-2.2l1.7-10.2H-503.8z"/>
		<path class="st1" d="M-490.1,29.4h-4.6l-2.2,12.9h-3.1l2.2-12.9h-4.6l0.5-2.6h12.3L-490.1,29.4z"/>
		<path class="st1" d="M-480.1,36h-5.9l-1.1,6.3h-3.1l2.7-15.5h9.8l-0.5,2.6h-6.7l-0.7,4h6L-480.1,36z"/>
		<path class="st1" d="M-475,42.4h-3.1l2.7-15.5h3.1L-475,42.4z"/>
		<path class="st1" d="M-468.2,39.8h6.6l-0.4,2.6h-9.7l2.7-15.5h3.1L-468.2,39.8z"/>
		<path class="st1" d="M-448.6,29.4h-4.6l-2.2,12.9h-3.1l2.2-12.9h-4.6l0.5-2.6h12.3L-448.6,29.4z"/>
		<path class="st1" d="M-438.5,35.6h-5.9l-0.7,4.2h7l-0.4,2.6h-10.1l2.7-15.5h10.1l-0.5,2.6h-7l-0.7,3.7h6L-438.5,35.6z"/>
		<path class="st1" d="M-429.9,36.7h-2.5l-1,5.7h-3.1l2.7-15.5l5.1,0c1.7,0,3,0.4,4,1.2c0.9,0.8,1.3,1.9,1.2,3.4
			c-0.1,2.1-1.3,3.6-3.4,4.4l2.2,6.3v0.2h-3.3L-429.9,36.7z M-432,34.1l2.3,0c0.8,0,1.5-0.2,2-0.7c0.5-0.4,0.9-1,1-1.8
			c0.1-0.7,0-1.2-0.3-1.6c-0.3-0.4-0.8-0.6-1.5-0.6l-2.7,0L-432,34.1z"/>
	</g>
	<path class="st2" d="M-599.9,22.4l9.6,12.2c0.2,0.2,0.3,0.5,0.3,0.7v8.9c0,0.9,0.9,1.5,1.7,1.1l3.7-1.7c0.4-0.2,0.7-0.6,0.7-1.1
		v-7.2c0-0.3,0.1-0.5,0.3-0.7l9.5-12.2"/>
	<ellipse class="st3" cx="-587.1" cy="20.8" rx="14.4" ry="3.9"/>
	<path class="st1" d="M-575.5,0l9,5.2c0.1,0,0.1,0.1,0.2,0l3.8-0.8c0.1,0,0.1,0,0.2,0l1.9,0.7c0.2,0.1,0.3,0.3,0.2,0.4l-0.7,1.4
		c0,0.1-0.1,0.1-0.2,0.2l-4.4,1.7c-0.1,0-0.1,0.1-0.2,0.1l-4.7,8.9c-0.1,0.1-0.2,0.2-0.4,0.2l-0.6-0.1c-0.1,0-0.2-0.1-0.2-0.3
		l-0.4-6.7c0-0.2-0.2-0.3-0.3-0.3l-5.3,0.6c-0.1,0-0.2,0.1-0.2,0.2l-1.1,2c-0.1,0.3-0.6,0.2-0.6-0.1l-0.1-1.8c0-0.1-0.1-0.3-0.3-0.3
		l-0.7-0.1l0.6-0.6c0.1-0.1,0.1-0.2,0-0.4l-0.8-1.4c-0.1-0.3,0.2-0.6,0.4-0.4l2,1.1c0.1,0,0.2,0.1,0.3,0l4.9-2.2
		c0.2-0.1,0.2-0.3,0.1-0.4l-3.5-6c-0.1-0.1,0-0.3,0.1-0.4l0.4-0.4C-575.7,0-575.6,0-575.5,0z"/>
	<path class="st1" d="M-576.4,10.2v0.6c-4.3,0.6-8,2.7-10.6,5.6c-2.2,2.6-3.4,5.4-3.8,8.1c-1.4-0.1-2.7-0.3-3.9-0.4
		c0.2-1.4,0.7-2.8,1.3-4.1C-590.6,13.5-583.4,9.2-576.4,10.2z"/>
	<path class="st3" d="M-601.5,20.8c0,1.4,2.7,2.6,6.8,3.3c1.2,0.2,2.5,0.4,3.9,0.4c1.2,0.1,2.4,0.1,3.7,0.1c7.9,0,14.4-1.7,14.4-3.9
		"/>
</g>
<g>
	<g>
		<path class="st0" d="M-152.1,39.7c-0.7,0.9-1.6,1.7-2.9,2.2c-1.3,0.5-2.7,0.8-4.4,0.7c-1.3,0-2.5-0.3-3.4-0.9
			c-1-0.6-1.8-1.4-2.3-2.5s-0.9-2.3-1-3.7c-0.1-1.1,0.1-2.6,0.4-4.4c0.3-1.9,0.9-3.5,1.8-4.8c0.8-1.4,1.9-2.4,3.1-3.1
			c1.3-0.7,2.7-1.1,4.3-1c1.9,0,3.3,0.6,4.5,1.7c1.1,1.1,1.7,2.6,1.9,4.5h-2.6c-0.1-1.3-0.5-2.2-1.1-2.9s-1.6-1-2.7-1.1
			c-1.7-0.1-3.2,0.6-4.3,1.9c-1.2,1.3-1.9,3.2-2.3,5.7l-0.3,1.9l0,1c0,1.8,0.4,3.2,1.1,4.2c0.7,1,1.8,1.5,3.1,1.5
			c1.9,0,3.5-0.4,4.6-1.4l0.8-4.5h-4.5l0.4-2.2h7L-152.1,39.7z"/>
		<path class="st0" d="M-140.7,42.6c-1.3,0-2.4-0.3-3.3-0.9c-0.9-0.6-1.7-1.5-2.2-2.6c-0.5-1.1-0.8-2.4-0.9-3.8
			c-0.1-1.1,0.1-2.5,0.4-4.1c0.3-1.6,0.8-3.1,1.6-4.4c0.7-1.3,1.6-2.4,2.7-3.2c1.4-1.1,3.1-1.6,4.9-1.5c2,0,3.5,0.7,4.6,2
			s1.7,3.1,1.8,5.3c0,1-0.1,2.2-0.3,3.7c-0.2,1.5-0.7,2.9-1.3,4.1c-0.6,1.3-1.4,2.3-2.3,3.2C-136.5,41.9-138.5,42.7-140.7,42.6z
			 M-133.6,30c0.1-1.8-0.3-3.2-0.9-4.2c-0.7-1-1.7-1.5-3.1-1.5c-1.2,0-2.3,0.3-3.3,1c-1,0.7-1.8,1.7-2.4,3.1c-0.6,1.4-1,3.2-1.2,5.3
			l0,0.9c-0.1,1.8,0.3,3.2,1,4.2c0.7,1,1.7,1.5,3,1.6c1.7,0,3.2-0.6,4.3-1.9c1.1-1.3,1.9-3.1,2.3-5.5
			C-133.8,31.9-133.7,30.9-133.6,30z"/>
		<path class="st1" d="M-123.2,42.6c-1,0-1.9-0.3-2.7-0.7c-0.8-0.5-1.4-1.1-1.9-2c-0.5-0.9-0.7-1.9-0.8-3c-0.1-1.2,0-2.4,0.4-3.7
			c0.3-1.3,0.9-2.5,1.6-3.5c0.7-1,1.6-1.8,2.6-2.2c1-0.5,2-0.7,3.2-0.7c1,0,2,0.3,2.7,0.7c0.8,0.5,1.4,1.2,1.8,2
			c0.4,0.9,0.7,1.9,0.8,3c0.1,1.3-0.1,2.5-0.4,3.9c-0.3,1.3-0.9,2.5-1.6,3.4s-1.6,1.7-2.5,2.2S-122,42.6-123.2,42.6z M-118.7,34.2
			l0.1-1c0.1-1.3-0.1-2.2-0.5-2.9c-0.4-0.7-1-1-1.9-1c-1.3,0-2.3,0.5-3.1,1.7c-0.8,1.2-1.2,2.9-1.3,5c-0.1,1.3,0.1,2.2,0.5,2.9
			s1,1,1.9,1.1c1.1,0,2-0.4,2.8-1.3c0.7-0.9,1.2-2.2,1.4-3.9L-118.7,34.2z"/>
		<path class="st1" d="M-100.3,26.8l-1.7,10.2c-0.2,1.7-1,3.1-2.1,4.1s-2.6,1.5-4.4,1.4c-1.1,0-2-0.3-2.9-0.7
			c-0.8-0.5-1.4-1.1-1.8-1.9s-0.5-1.8-0.4-2.8l1.7-10.2h3.1l-1.7,10.3c0,0.4-0.1,0.8,0,1.1c0.1,1.2,0.8,1.7,2.1,1.8
			c0.9,0,1.6-0.2,2.2-0.7s0.9-1.2,1.1-2.2l1.7-10.2H-100.3z"/>
		<path class="st1" d="M-86.6,29.4h-4.6l-2.2,12.9h-3.1l2.2-12.9h-4.6l0.5-2.6h12.3L-86.6,29.4z"/>
		<path class="st1" d="M-76.6,36h-5.9l-1.1,6.3h-3.1l2.7-15.5h9.8l-0.5,2.6h-6.7l-0.7,4h6L-76.6,36z"/>
		<path class="st1" d="M-71.5,42.4h-3.1l2.7-15.5h3.1L-71.5,42.4z"/>
		<path class="st1" d="M-64.8,39.8h6.6l-0.4,2.6h-9.7l2.7-15.5h3.1L-64.8,39.8z"/>
		<path class="st1" d="M-45.1,29.4h-4.6L-52,42.4h-3.1l2.2-12.9h-4.6l0.5-2.6h12.3L-45.1,29.4z"/>
		<path class="st1" d="M-35,35.6H-41l-0.7,4.2h7l-0.4,2.6h-10.1l2.7-15.5h10.1l-0.5,2.6h-7l-0.7,3.7h6L-35,35.6z"/>
		<path class="st1" d="M-26.4,36.7h-2.5l-1,5.7h-3.1l2.7-15.5l5.1,0c1.7,0,3,0.4,4,1.2c0.9,0.8,1.3,1.9,1.2,3.4
			c-0.1,2.1-1.3,3.6-3.4,4.4l2.2,6.3v0.2h-3.3L-26.4,36.7z M-28.5,34.1l2.3,0c0.8,0,1.5-0.2,2-0.7c0.5-0.4,0.9-1,1-1.8
			c0.1-0.7,0-1.2-0.3-1.6c-0.3-0.4-0.8-0.6-1.5-0.6l-2.7,0L-28.5,34.1z"/>
	</g>
	<g>
		<g>
			<path class="st0" d="M-170.2,23.5l-9.2,11.8l0,7.3c0,0.9-0.5,1.7-1.3,2.1l-3.7,1.7c-0.3,0.2-0.6,0.2-1,0.2
				c-0.4,0-0.8-0.1-1.2-0.4c-0.7-0.4-1.1-1.2-1.1-1.9v-9l-9.2-11.8c0.6,0.3,1.3,0.6,2,0.8c0.6,0.2,1.2,0.3,1.8,0.5l7.1,9.1
				c0.3,0.4,0.5,0.9,0.5,1.4v9c0,0,0,0.1,0.1,0.1c0.1,0,0.1,0,0.1,0l3.7-1.8c0,0,0.1-0.1,0.1-0.1v-7.2c0-0.5,0.2-1,0.5-1.4l7.1-9.1
				c0.6-0.1,1.2-0.3,1.8-0.5C-171.5,24.1-170.8,23.8-170.2,23.5z"/>
		</g>
		<ellipse class="st3" cx="-183.6" cy="20.8" rx="14.4" ry="3.9"/>
		<path class="st1" d="M-156.9,5.2l-1.9-0.7c-0.1,0-0.1,0-0.2,0l-3.8,0.8c-0.1,0-0.2,0-0.2,0l-9-5.2c-0.1-0.1-0.3-0.1-0.4,0
			l-0.4,0.4c-0.1,0.1-0.1,0.3-0.1,0.4l3.5,6c0.1,0.2,0,0.4-0.1,0.4l-4.9,2.2c-0.1,0-0.2,0-0.3,0l-2-1.1c-0.3-0.1-0.6,0.2-0.4,0.4
			l0.7,1.3c-5.7,0.6-11.1,4.5-13.4,9.9c-0.6,1.3-1,2.7-1.3,4.1c1.2,0.2,2.5,0.4,3.9,0.4c0.4-2.8,1.6-5.6,3.8-8.1
			c1.9-2.2,4.5-3.9,7.5-4.9c0,0,0.1,0.1,0.1,0.1l0.1,1.8c0,0.3,0.4,0.4,0.6,0.1l1.1-2c0-0.1,0.1-0.2,0.2-0.2l5.3-0.6
			c0.2,0,0.3,0.1,0.3,0.3l0.4,6.7c0,0.1,0.1,0.3,0.2,0.3l0.6,0.1c0.1,0,0.3,0,0.4-0.2l4.7-8.9c0-0.1,0.1-0.1,0.2-0.1l4.4-1.7
			c0.1,0,0.1-0.1,0.2-0.2l0.7-1.4C-156.6,5.5-156.7,5.3-156.9,5.2z"/>
		<g>
			<path class="st0" d="M-168.2,20.8c0,1.1-0.8,2-2.1,2.7h0c-0.6,0.3-1.3,0.6-2,0.9c-0.5,0.2-1.1,0.4-1.8,0.5c-2.8,0.7-6.2,1-9.6,1
				c-1.3,0-2.5,0-3.8-0.1c-1.4-0.1-2.7-0.2-4-0.5c-0.6-0.1-1.2-0.2-1.8-0.4c-0.6-0.1-1.2-0.3-1.8-0.5c-0.7-0.2-1.4-0.5-2-0.8
				c-1.3-0.7-2.1-1.6-2.1-2.7h2.2c0,0.2,0.4,0.5,1.3,1c0,0,0.1,0,0.1,0c0,0,1,0.4,1.7,0.6c0.8,0.2,1.7,0.5,2.9,0.6
				c1.2,0.2,2.5,0.3,3.8,0.4c1.2,0.1,2.4,0.1,3.6,0.1c4.6,0,8-0.6,10.2-1.2c0.6-0.2,1.2-0.4,1.6-0.6c0,0,1.4-0.8,1.4-1H-168.2z"/>
		</g>
	</g>
</g>
<g>
	<g>
		<path class="st4" d="M47,39.7c-0.7,0.9-1.6,1.7-2.9,2.2c-1.3,0.5-2.7,0.8-4.4,0.7c-1.3,0-2.5-0.3-3.4-0.9c-1-0.6-1.8-1.4-2.3-2.5
			s-0.9-2.3-1-3.7c-0.1-1.1,0.1-2.6,0.4-4.4c0.3-1.9,0.9-3.5,1.8-4.8c0.8-1.4,1.9-2.4,3.1-3.1c1.3-0.7,2.7-1.1,4.3-1
			c1.9,0,3.3,0.6,4.5,1.7c1.1,1.1,1.7,2.6,1.9,4.5h-2.6c-0.1-1.3-0.5-2.2-1.1-2.9s-1.6-1-2.7-1.1c-1.7-0.1-3.2,0.6-4.3,1.9
			c-1.2,1.3-1.9,3.2-2.3,5.7l-0.3,1.9l0,1c0,1.8,0.4,3.2,1.1,4.2c0.7,1,1.8,1.5,3.1,1.5c1.9,0,3.5-0.4,4.6-1.4l0.8-4.5h-4.5l0.4-2.2
			h7L47,39.7z"/>
		<path class="st4" d="M58.4,42.6c-1.3,0-2.4-0.3-3.3-0.9c-0.9-0.6-1.7-1.5-2.2-2.6C52.3,38,52,36.7,52,35.3
			c-0.1-1.1,0.1-2.5,0.4-4.1c0.3-1.6,0.8-3.1,1.6-4.4c0.7-1.3,1.6-2.4,2.7-3.2c1.4-1.1,3.1-1.6,4.9-1.5c2,0,3.5,0.7,4.6,2
			s1.7,3.1,1.8,5.3c0,1-0.1,2.2-0.3,3.7c-0.2,1.5-0.7,2.9-1.3,4.1c-0.6,1.3-1.4,2.3-2.3,3.2C62.5,41.9,60.6,42.7,58.4,42.6z
			 M65.5,30c0.1-1.8-0.3-3.2-0.9-4.2c-0.7-1-1.7-1.5-3.1-1.5c-1.2,0-2.3,0.3-3.3,1c-1,0.7-1.8,1.7-2.4,3.1c-0.6,1.4-1,3.2-1.2,5.3
			l0,0.9c-0.1,1.8,0.3,3.2,1,4.2c0.7,1,1.7,1.5,3,1.6c1.7,0,3.2-0.6,4.3-1.9c1.1-1.3,1.9-3.1,2.3-5.5C65.3,31.9,65.4,30.9,65.5,30z"
			/>
		<path class="st4" d="M75.9,42.6c-1,0-1.9-0.3-2.7-0.7c-0.8-0.5-1.4-1.1-1.9-2c-0.5-0.9-0.7-1.9-0.8-3c-0.1-1.2,0-2.4,0.4-3.7
			c0.3-1.3,0.9-2.5,1.6-3.5c0.7-1,1.6-1.8,2.6-2.2c1-0.5,2-0.7,3.2-0.7c1,0,2,0.3,2.7,0.7c0.8,0.5,1.4,1.2,1.8,2
			c0.4,0.9,0.7,1.9,0.8,3c0.1,1.3-0.1,2.5-0.4,3.9c-0.3,1.3-0.9,2.5-1.6,3.4s-1.6,1.7-2.5,2.2S77.1,42.6,75.9,42.6z M80.4,34.2
			l0.1-1c0.1-1.3-0.1-2.2-0.5-2.9c-0.4-0.7-1-1-1.9-1c-1.3,0-2.3,0.5-3.1,1.7c-0.8,1.2-1.2,2.9-1.3,5c-0.1,1.3,0.1,2.2,0.5,2.9
			s1,1,1.9,1.1c1.1,0,2-0.4,2.8-1.3c0.7-0.9,1.2-2.2,1.4-3.9L80.4,34.2z"/>
		<path class="st4" d="M98.8,26.8l-1.7,10.2c-0.2,1.7-1,3.1-2.1,4.1s-2.6,1.5-4.4,1.4c-1.1,0-2-0.3-2.9-0.7
			c-0.8-0.5-1.4-1.1-1.8-1.9s-0.5-1.8-0.4-2.8l1.7-10.2h3.1l-1.7,10.3c0,0.4-0.1,0.8,0,1.1c0.1,1.2,0.8,1.7,2.1,1.8
			c0.9,0,1.6-0.2,2.2-0.7s0.9-1.2,1.1-2.2l1.7-10.2H98.8z"/>
		<path class="st4" d="M112.5,29.4h-4.6l-2.2,12.9h-3.1l2.2-12.9h-4.6l0.5-2.6H113L112.5,29.4z"/>
		<path class="st4" d="M122.5,36h-5.9l-1.1,6.3h-3.1l2.7-15.5h9.8l-0.5,2.6h-6.7l-0.7,4h6L122.5,36z"/>
		<path class="st4" d="M127.6,42.4h-3.1l2.7-15.5h3.1L127.6,42.4z"/>
		<path class="st4" d="M134.3,39.8h6.6l-0.4,2.6h-9.7l2.7-15.5h3.1L134.3,39.8z"/>
		<path class="st4" d="M154,29.4h-4.6l-2.2,12.9H144l2.2-12.9h-4.6l0.5-2.6h12.3L154,29.4z"/>
		<path class="st4" d="M164,35.6h-5.9l-0.7,4.2h7l-0.4,2.6h-10.1l2.7-15.5h10.1l-0.5,2.6h-7l-0.7,3.7h6L164,35.6z"/>
		<path class="st4" d="M172.7,36.7h-2.5l-1,5.7H166l2.7-15.5l5.1,0c1.7,0,3,0.4,4,1.2c0.9,0.8,1.3,1.9,1.2,3.4
			c-0.1,2.1-1.3,3.6-3.4,4.4l2.2,6.3v0.2h-3.3L172.7,36.7z M170.6,34.1l2.3,0c0.8,0,1.5-0.2,2-0.7c0.5-0.4,0.9-1,1-1.8
			c0.1-0.7,0-1.2-0.3-1.6c-0.3-0.4-0.8-0.6-1.5-0.6l-2.7,0L170.6,34.1z"/>
	</g>
	<g>
		<g>
			<path class="st4" d="M28.9,23.5l-9.2,11.8l0,7.3c0,0.9-0.5,1.7-1.3,2.1l-3.7,1.7c-0.3,0.2-0.6,0.2-1,0.2c-0.4,0-0.8-0.1-1.2-0.4
				c-0.7-0.4-1.1-1.2-1.1-1.9v-9L2.1,23.5c0.6,0.3,1.3,0.6,2,0.8c0.6,0.2,1.2,0.3,1.8,0.5l7.1,9.1c0.3,0.4,0.5,0.9,0.5,1.4v9
				c0,0,0,0.1,0.1,0.1c0.1,0,0.1,0,0.1,0l3.7-1.8c0,0,0.1-0.1,0.1-0.1v-7.2c0-0.5,0.2-1,0.5-1.4l7.1-9.1c0.6-0.1,1.2-0.3,1.8-0.5
				C27.6,24.1,28.3,23.8,28.9,23.5z"/>
		</g>
		<ellipse class="st5" cx="15.5" cy="20.8" rx="14.4" ry="3.9"/>
		<path class="st4" d="M42.2,5.2l-1.9-0.7c-0.1,0-0.1,0-0.2,0l-3.8,0.8c-0.1,0-0.2,0-0.2,0l-9-5.2C27,0,26.8,0,26.7,0.1l-0.4,0.4
			c-0.1,0.1-0.1,0.3-0.1,0.4l3.5,6c0.1,0.2,0,0.4-0.1,0.4l-4.9,2.2c-0.1,0-0.2,0-0.3,0l-2-1.1c-0.3-0.1-0.6,0.2-0.4,0.4l0.7,1.3
			c-5.7,0.6-11.1,4.5-13.4,9.9c-0.6,1.3-1,2.7-1.3,4.1c1.2,0.2,2.5,0.4,3.9,0.4c0.4-2.8,1.6-5.6,3.8-8.1c1.9-2.2,4.5-3.9,7.5-4.9
			c0,0,0.1,0.1,0.1,0.1l0.1,1.8c0,0.3,0.4,0.4,0.6,0.1l1.1-2c0-0.1,0.1-0.2,0.2-0.2l5.3-0.6c0.2,0,0.3,0.1,0.3,0.3l0.4,6.7
			c0,0.1,0.1,0.3,0.2,0.3l0.6,0.1c0.1,0,0.3,0,0.4-0.2l4.7-8.9C37,9,37,9,37.1,9l4.4-1.7c0.1,0,0.1-0.1,0.2-0.2l0.7-1.4
			C42.5,5.5,42.4,5.3,42.2,5.2z"/>
		<g>
			<path class="st4" d="M30.9,20.8c0,1.1-0.8,2-2.1,2.7h0c-0.6,0.3-1.3,0.6-2,0.9c-0.5,0.2-1.1,0.4-1.8,0.5c-2.8,0.7-6.2,1-9.6,1
				c-1.3,0-2.5,0-3.8-0.1c-1.4-0.1-2.7-0.2-4-0.5C7.2,25.1,6.6,25,6,24.8c-0.6-0.1-1.2-0.3-1.8-0.5c-0.7-0.2-1.4-0.5-2-0.8
				C0.9,22.8,0,22,0,20.8h2.2c0,0.2,0.4,0.5,1.3,1c0,0,0.1,0,0.1,0c0,0,1,0.4,1.7,0.6C6,22.6,7,22.9,8.1,23c1.2,0.2,2.5,0.3,3.8,0.4
				c1.2,0.1,2.4,0.1,3.6,0.1c4.6,0,8-0.6,10.2-1.2c0.6-0.2,1.2-0.4,1.6-0.6c0,0,1.4-0.8,1.4-1H30.9z"/>
		</g>
	</g>
</g>
<g>
	<g>
		<g>
			<path class="st4" d="M-456.4-88c-0.7,0.9-1.6,1.7-2.9,2.2c-1.3,0.5-2.7,0.8-4.4,0.7c-1.3,0-2.5-0.3-3.4-0.9
				c-1-0.6-1.8-1.4-2.3-2.5s-0.9-2.3-1-3.7c-0.1-1.1,0.1-2.6,0.4-4.4s0.9-3.5,1.8-4.8c0.8-1.4,1.9-2.4,3.1-3.1
				c1.3-0.7,2.7-1.1,4.3-1c1.9,0,3.3,0.6,4.5,1.7c1.1,1.1,1.7,2.6,1.9,4.5h-2.6c-0.1-1.3-0.5-2.2-1.1-2.9s-1.6-1-2.7-1.1
				c-1.7-0.1-3.2,0.6-4.3,1.9c-1.2,1.3-1.9,3.2-2.3,5.7l-0.3,1.9l0,1c0,1.8,0.4,3.2,1.1,4.2c0.7,1,1.8,1.5,3.1,1.5
				c1.9,0,3.5-0.4,4.6-1.4l0.8-4.5h-4.5l0.4-2.2h7L-456.4-88z"/>
		</g>
		<g>
			<path class="st4" d="M-445-85.1c-1.3,0-2.4-0.3-3.3-0.9c-0.9-0.6-1.7-1.5-2.2-2.6c-0.5-1.1-0.8-2.4-0.9-3.8
				c-0.1-1.1,0.1-2.5,0.4-4.1c0.3-1.6,0.8-3.1,1.6-4.4c0.7-1.3,1.6-2.4,2.7-3.2c1.4-1.1,3.1-1.6,4.9-1.5c2,0,3.5,0.7,4.6,2
				s1.7,3.1,1.8,5.3c0,1-0.1,2.2-0.3,3.7c-0.2,1.5-0.7,2.9-1.3,4.1c-0.6,1.3-1.4,2.3-2.3,3.2C-440.9-85.8-442.8-85.1-445-85.1z
				 M-438-97.7c0.1-1.8-0.3-3.2-0.9-4.2c-0.7-1-1.7-1.5-3.1-1.5c-1.2,0-2.3,0.3-3.3,1c-1,0.7-1.8,1.7-2.4,3.1
				c-0.6,1.4-1,3.2-1.2,5.3l0,0.9c-0.1,1.8,0.3,3.2,1,4.2c0.7,1,1.7,1.5,3,1.6c1.7,0,3.2-0.6,4.3-1.9c1.1-1.3,1.9-3.1,2.3-5.5
				C-438.1-95.9-438-96.9-438-97.7z"/>
		</g>
		<g>
			<path class="st6" d="M-427.5-85.2c-1,0-1.9-0.3-2.7-0.7c-0.8-0.5-1.4-1.1-1.9-2c-0.5-0.9-0.7-1.9-0.8-3c-0.1-1.2,0-2.4,0.4-3.7
				c0.3-1.3,0.9-2.5,1.6-3.5c0.7-1,1.6-1.8,2.6-2.2c1-0.5,2-0.7,3.2-0.7c1,0,2,0.3,2.7,0.7c0.8,0.5,1.4,1.2,1.8,2
				c0.4,0.9,0.7,1.9,0.8,3c0.1,1.3-0.1,2.5-0.4,3.9c-0.3,1.3-0.9,2.5-1.6,3.4s-1.6,1.7-2.5,2.2S-426.4-85.2-427.5-85.2z
				 M-423.1-93.6l0.1-1c0.1-1.3-0.1-2.2-0.5-2.9c-0.4-0.7-1-1-1.9-1c-1.3,0-2.3,0.5-3.1,1.7c-0.8,1.2-1.2,2.9-1.3,5
				c-0.1,1.3,0.1,2.2,0.5,2.9s1,1,1.9,1.1c1.1,0,2-0.4,2.8-1.3c0.7-0.9,1.2-2.2,1.4-3.9L-423.1-93.6z"/>
		</g>
		<g>
			<path class="st6" d="M-404.6-100.9l-1.7,10.2c-0.2,1.7-1,3.1-2.1,4.1s-2.6,1.5-4.4,1.4c-1.1,0-2-0.3-2.9-0.7
				c-0.8-0.5-1.4-1.1-1.8-1.9s-0.5-1.8-0.4-2.8l1.7-10.2h3.1l-1.7,10.3c0,0.4-0.1,0.8,0,1.1c0.1,1.2,0.8,1.7,2.1,1.8
				c0.9,0,1.6-0.2,2.2-0.7s0.9-1.2,1.1-2.2l1.7-10.2H-404.6z"/>
		</g>
		<g>
			<path class="st6" d="M-390.9-98.3h-4.6l-2.2,12.9h-3.1l2.2-12.9h-4.6l0.5-2.6h12.3L-390.9-98.3z"/>
		</g>
		<g>
			<path class="st6" d="M-380.9-91.7h-5.9l-1.1,6.3h-3.1l2.7-15.5h9.8l-0.5,2.6h-6.7l-0.7,4h6L-380.9-91.7z"/>
		</g>
		<g>
			<path class="st6" d="M-375.8-85.4h-3.1l2.7-15.5h3.1L-375.8-85.4z"/>
		</g>
		<g>
			<path class="st6" d="M-369.1-88h6.6l-0.4,2.6h-9.7l2.7-15.5h3.1L-369.1-88z"/>
		</g>
		<g>
			<path class="st6" d="M-349.5-98.3h-4.6l-2.2,12.9h-3.1l2.2-12.9h-4.6l0.5-2.6h12.3L-349.5-98.3z"/>
		</g>
		<g>
			<path class="st6" d="M-339.4-92.1h-5.9l-0.7,4.2h7l-0.4,2.6h-10.1l2.7-15.5h10.1l-0.5,2.6h-7l-0.7,3.7h6L-339.4-92.1z"/>
		</g>
		<g>
			<path class="st6" d="M-330.8-91.1h-2.5l-1,5.7h-3.1l2.7-15.5l5.1,0c1.7,0,3,0.4,4,1.2c0.9,0.8,1.3,1.9,1.2,3.4
				c-0.1,2.1-1.3,3.6-3.4,4.4l2.2,6.3v0.2h-3.3L-330.8-91.1z M-332.8-93.7l2.3,0c0.8,0,1.5-0.2,2-0.7c0.5-0.4,0.9-1,1-1.8
				c0.1-0.7,0-1.2-0.3-1.6c-0.3-0.4-0.8-0.6-1.5-0.6l-2.7,0L-332.8-93.7z"/>
		</g>
	</g>
	<g>
		<path class="st4" d="M-489.8-81.2c-0.4,0-0.9-0.1-1.2-0.4c-0.7-0.4-1.1-1.2-1.1-1.9v-8.9l-9.6-12.3l1.7-1.3l9.6,12.2
			c0.3,0.4,0.5,0.9,0.5,1.4v8.9c0,0,0,0.1,0.1,0.1c0.1,0,0.1,0,0.1,0l3.7-1.7c0,0,0.1-0.1,0.1-0.1v-7.2c0-0.5,0.2-1,0.5-1.4
			l9.5-12.2l1.7,1.3l-9.5,12.2l0,7.3c0,0.9-0.5,1.7-1.3,2.1l-3.7,1.7C-489.1-81.2-489.4-81.2-489.8-81.2z"/>
	</g>
	<g>
		<path class="st4" d="M-488-102c-7.5,0-15.5-1.6-15.5-5s8-5,15.5-5s15.5,1.6,15.5,5S-480.5-102-488-102z M-488-109.8
			c-8.6,0-13.2,2-13.3,2.8c0.1,0.8,4.7,2.8,13.3,2.8c8.6,0,13.2-2,13.3-2.8C-474.8-107.8-479.4-109.8-488-109.8z"/>
	</g>
	<g>
		<path class="st4" d="M-476.3-127.7l9,5.2c0.1,0,0.1,0.1,0.2,0l3.8-0.8c0.1,0,0.1,0,0.2,0l1.9,0.7c0.2,0.1,0.3,0.3,0.2,0.4
			l-0.7,1.4c0,0.1-0.1,0.1-0.2,0.2l-4.4,1.7c-0.1,0-0.1,0.1-0.2,0.1l-4.7,8.9c-0.1,0.1-0.2,0.2-0.4,0.2l-0.6-0.1
			c-0.1,0-0.2-0.1-0.2-0.3l-0.4-6.7c0-0.2-0.2-0.3-0.3-0.3l-5.3,0.6c-0.1,0-0.2,0.1-0.2,0.2l-1.1,2c-0.1,0.3-0.6,0.2-0.6-0.1
			l-0.1-1.8c0-0.1-0.1-0.3-0.3-0.3l-0.7-0.1l0.6-0.6c0.1-0.1,0.1-0.2,0-0.4l-0.8-1.4c-0.1-0.3,0.2-0.6,0.4-0.4l2,1.1
			c0.1,0,0.2,0.1,0.3,0l4.9-2.2c0.2-0.1,0.2-0.3,0.1-0.4l-3.5-6c-0.1-0.1,0-0.3,0.1-0.4l0.4-0.4
			C-476.6-127.8-476.5-127.8-476.3-127.7z"/>
	</g>
	<g>
		<path class="st4" d="M-477.3-117.5v0.6c-4.3,0.6-8,2.7-10.6,5.6c-2.2,2.6-3.4,5.4-3.8,8.1c-1.4-0.1-2.7-0.3-3.9-0.4
			c0.2-1.4,0.7-2.8,1.3-4.1C-491.4-114.2-484.2-118.6-477.3-117.5z"/>
	</g>
	<g>
		<path class="st4" d="M-488-102c-1.3,0-2.5,0-3.8-0.1c-1.4-0.1-2.7-0.2-4-0.5c-3.5-0.6-7.7-1.8-7.7-4.4l2.2,0
			c0,0.3,1.5,1.5,5.9,2.2c1.2,0.2,2.5,0.3,3.8,0.4c1.2,0.1,2.4,0.1,3.6,0.1c8.6,0,13.2-2,13.3-2.8l2.2,0
			C-472.5-103.5-480.5-102-488-102z"/>
	</g>
</g>
<g>
	<g>
		<path class="st0" d="M-646.4-494.4c-1.5,2.1-3.6,3.7-6.4,4.8c-2.8,1.1-6,1.7-9.6,1.6c-2.9-0.1-5.4-0.7-7.6-2
			c-2.2-1.3-3.9-3.1-5.1-5.6c-1.2-2.4-1.9-5.2-2.1-8.2c-0.1-2.4,0.2-5.7,0.9-9.7c0.7-4.1,2-7.6,3.9-10.6c1.8-3,4.1-5.3,6.9-6.8
			s5.9-2.3,9.5-2.3c4.1,0.1,7.4,1.3,9.8,3.6c2.4,2.4,3.8,5.7,4.2,9.9h-5.6c-0.2-2.8-1.1-4.9-2.5-6.4c-1.5-1.5-3.5-2.3-6-2.4
			c-3.8-0.1-7,1.2-9.5,4.1c-2.6,2.9-4.2,7.1-5,12.6l-0.6,4.2l-0.1,2.3c0,4,0.8,7.1,2.5,9.2c1.6,2.2,3.9,3.3,6.9,3.3
			c4.3,0.1,7.6-0.9,10.1-3.1l1.8-9.9h-9.9l0.8-4.8h15.5L-646.4-494.4z"/>
		<path class="st0" d="M-621.3-488c-2.8-0.1-5.2-0.7-7.3-2c-2.1-1.3-3.7-3.2-4.9-5.7c-1.2-2.5-1.8-5.3-2-8.5
			c-0.1-2.4,0.2-5.5,0.8-9.1c0.7-3.6,1.8-6.8,3.5-9.7c1.6-2.9,3.6-5.2,6-6.9c3.2-2.3,6.8-3.5,10.8-3.4c4.3,0.1,7.7,1.6,10.2,4.5
			c2.5,2.9,3.8,6.8,4,11.8c0.1,2.1-0.1,4.8-0.7,8.1c-0.5,3.3-1.4,6.3-2.8,9.1c-1.3,2.8-3,5.2-5,7.1
			C-612.2-489.5-616.4-487.9-621.3-488z M-605.8-515.6c0.1-4-0.6-7.1-2.1-9.2c-1.5-2.2-3.8-3.3-6.8-3.4c-2.7-0.1-5.1,0.6-7.3,2.2
			c-2.1,1.5-3.9,3.8-5.2,6.9c-1.4,3.1-2.2,6.9-2.6,11.6l-0.1,2c-0.1,4,0.6,7.1,2.1,9.3c1.5,2.2,3.8,3.4,6.7,3.5
			c3.8,0.1,7-1.3,9.5-4.1c2.5-2.9,4.2-6.9,5-12C-606.1-511.6-605.8-513.8-605.8-515.6z"/>
		<path class="st1" d="M-582.7-488.1c-2.3,0-4.3-0.6-6-1.6s-3.1-2.5-4.1-4.4s-1.6-4.1-1.7-6.6c-0.2-2.6,0.1-5.3,0.8-8.2
			s1.9-5.5,3.5-7.7s3.5-3.9,5.6-4.9s4.5-1.6,7-1.6c2.3,0,4.3,0.6,6,1.6s3.1,2.5,4.1,4.5s1.5,4.2,1.7,6.6c0.2,2.8-0.1,5.6-0.9,8.5
			s-1.9,5.4-3.5,7.5s-3.4,3.7-5.5,4.8S-580.3-488-582.7-488.1z M-573-506.6l0.2-2.2c0.2-2.8-0.2-4.9-1.1-6.3s-2.3-2.2-4.1-2.2
			c-2.9-0.1-5.1,1.2-6.8,3.8c-1.7,2.6-2.6,6.3-2.8,11c-0.2,2.8,0.2,4.9,1.1,6.4s2.3,2.3,4.1,2.3c2.5,0.1,4.5-0.8,6.1-2.9
			s2.7-4.9,3.2-8.6L-573-506.6z"/>
		<path class="st1" d="M-532.4-522.7l-3.8,22.5c-0.5,3.8-2.1,6.7-4.7,8.9s-5.8,3.2-9.7,3.2c-2.4,0-4.5-0.6-6.3-1.6s-3.1-2.4-3.9-4.3
			s-1.1-3.9-0.9-6.2l3.8-22.5h6.9l-3.8,22.5c-0.1,0.9-0.1,1.7,0,2.5c0.3,2.5,1.8,3.8,4.5,3.9c1.9,0.1,3.5-0.5,4.8-1.6s2-2.7,2.4-4.8
			l3.8-22.5H-532.4z"/>
		<path class="st1" d="M-502.3-517h-10.1l-4.9,28.4h-6.9l4.9-28.4h-10l1-5.7h27L-502.3-517z"/>
		<path class="st1" d="M-480.3-502.5h-13.1l-2.4,13.9h-6.9l5.9-34.1h21.6l-1,5.7h-14.7l-1.5,8.8h13.1L-480.3-502.5z"/>
		<path class="st1" d="M-469.2-488.6h-6.9l5.9-34.1h6.9L-469.2-488.6z"/>
		<path class="st1" d="M-454.3-494.2h14.5l-1,5.6h-21.4l5.9-34.1h6.9L-454.3-494.2z"/>
		<path class="st1" d="M-411.2-517h-10.1l-4.9,28.4h-6.9l4.9-28.4h-10l1-5.7h27L-411.2-517z"/>
		<path class="st1" d="M-389-503.3h-13.1l-1.6,9.1h15.4l-1,5.6h-22.2l5.9-34.1h22.2l-1,5.7h-15.3l-1.4,8.1h13.1L-389-503.3z"/>
		<path class="st1" d="M-370-501h-5.6l-2.2,12.5h-6.9l5.9-34.1l11.3,0c3.8,0,6.7,0.9,8.7,2.7s2.9,4.3,2.7,7.4
			c-0.3,4.7-2.8,7.9-7.5,9.8l4.8,13.9v0.4h-7.3L-370-501z M-374.6-506.7l5.1,0c1.8,0,3.3-0.5,4.5-1.5s1.9-2.2,2.1-3.9
			c0.2-1.5,0-2.7-0.7-3.6s-1.8-1.3-3.4-1.4l-5.9,0L-374.6-506.7z"/>
	</g>
	<path class="st7" d="M-743.9-532.4l21,26.8c0.4,0.5,0.6,1,0.6,1.6v19.7c0,2,2,3.2,3.8,2.4l8.1-3.8c0.9-0.4,1.5-1.4,1.5-2.4V-504
		c0-0.6,0.2-1.2,0.6-1.6l20.8-26.8"/>
	<ellipse class="st8" cx="-715.7" cy="-536" rx="31.6" ry="8.6"/>
	<path class="st1" d="M-690.1-581.6l19.8,11.5c0.2,0.1,0.3,0.1,0.5,0.1l8.4-1.9c0.1,0,0.3,0,0.4,0l4.2,1.6c0.4,0.1,0.6,0.6,0.4,1
		l-1.6,3.1c-0.1,0.2-0.2,0.3-0.4,0.3l-9.7,3.8c-0.2,0.1-0.3,0.2-0.4,0.3l-10.3,19.6c-0.1,0.3-0.5,0.4-0.8,0.4l-1.2-0.3
		c-0.3-0.1-0.5-0.3-0.5-0.6l-0.9-14.8c0-0.4-0.4-0.7-0.8-0.6l-11.6,1.3c-0.2,0-0.4,0.2-0.5,0.4l-2.3,4.4c-0.3,0.6-1.3,0.4-1.3-0.3
		l-0.2-3.9c0-0.3-0.3-0.6-0.6-0.6l-1.6-0.2l1.2-1.4c0.2-0.2,0.2-0.5,0.1-0.8l-1.7-3.1c-0.3-0.6,0.3-1.3,0.9-0.9l4.4,2.4
		c0.2,0.1,0.4,0.1,0.6,0l10.8-4.9c0.4-0.2,0.5-0.6,0.3-1l-7.6-13.2c-0.2-0.3-0.1-0.6,0.1-0.8l0.9-0.9
		C-690.7-581.7-690.4-581.7-690.1-581.6z"/>
	<path class="st1" d="M-692.1-559.2v1.2c-9.4,1.4-17.6,5.9-23.3,12.4c-4.8,5.6-7.4,11.8-8.3,17.9c-3-0.2-5.9-0.5-8.5-1
		c0.5-3.1,1.5-6.2,2.8-9.1C-723.3-551.9-707.5-561.5-692.1-559.2z"/>
	<path class="st8" d="M-747.3-536c0,3.1,6,5.8,15,7.3c2.6,0.4,5.5,0.8,8.5,1c2.6,0.2,5.3,0.3,8.1,0.3c17.5,0,31.6-3.8,31.6-8.6"/>
</g>
<g>
	<path d="M-1541.1,410.5c-1.5,2.2-3.7,3.9-6.4,4.9c-2.8,1.1-6,1.6-9.6,1.6c-3.7,0-7-0.9-9.9-2.6c-2.9-1.7-5.1-4.2-6.7-7.4
		c-1.6-3.2-2.4-6.9-2.4-11.1v-4c0-6.8,1.6-12.2,4.8-15.9c3.2-3.8,7.7-5.7,13.5-5.7c4.7,0,8.6,1.2,11.5,3.6s4.7,5.9,5.3,10.3h-6
		c-1.1-6-4.7-9.1-10.7-9.1c-4,0-7.1,1.4-9.1,4.2c-2.1,2.8-3.1,6.9-3.1,12.3v3.7c0,5.1,1.2,9.2,3.5,12.2c2.3,3,5.5,4.5,9.5,4.5
		c2.2,0,4.2-0.2,5.9-0.7c1.7-0.5,3.1-1.3,4.2-2.5v-10.2h-10.5v-4.9h16.5V410.5z"/>
	<path d="M-1496.1,395.2c0,4.5-0.7,8.3-2.2,11.7s-3.6,5.9-6.4,7.6c-2.7,1.7-6,2.6-9.6,2.6c-3.6,0-6.8-0.9-9.5-2.6
		c-2.8-1.8-4.9-4.3-6.4-7.5s-2.3-7-2.4-11.3v-3.3c0-4.4,0.8-8.2,2.3-11.6c1.5-3.4,3.7-5.9,6.4-7.7c2.8-1.8,6-2.7,9.5-2.7
		c3.6,0,6.9,0.9,9.6,2.6s4.9,4.3,6.4,7.6s2.2,7.2,2.2,11.7V395.2z M-1502.1,392.2c0-5.4-1.1-9.5-3.2-12.4c-2.2-2.9-5.2-4.3-9.1-4.3
		c-3.8,0-6.8,1.4-8.9,4.3c-2.2,2.9-3.3,6.9-3.4,12v3.3c0,5.2,1.1,9.3,3.3,12.3c2.2,3,5.2,4.5,9.1,4.5c3.9,0,6.9-1.4,9-4.2
		s3.2-6.9,3.3-12.1V392.2z"/>
	<path d="M-1457.3,397.9c0,3.8-0.7,7.2-2,10.1c-1.3,2.9-3.2,5.1-5.7,6.7s-5.3,2.3-8.5,2.3c-3.2,0-6-0.8-8.5-2.3
		c-2.5-1.5-4.4-3.8-5.7-6.6c-1.4-2.9-2-6.2-2.1-9.9v-2.2c0-3.8,0.7-7.2,2-10.1c1.4-2.9,3.3-5.1,5.7-6.7c2.5-1.5,5.3-2.3,8.5-2.3
		s6,0.8,8.5,2.3c2.5,1.5,4.4,3.7,5.7,6.6c1.3,2.9,2,6.2,2,10V397.9z M-1464.1,395.9c0-4.3-0.8-7.6-2.5-10s-4-3.5-7-3.5
		c-2.9,0-5.2,1.2-6.9,3.4c-1.7,2.3-2.5,5.5-2.5,9.8v2.3c0,4.3,0.8,7.6,2.5,10c1.7,2.3,4,3.5,7,3.5c3,0,5.3-1.1,6.9-3.4
		c1.6-2.3,2.4-5.6,2.4-10V395.9z"/>
	<path d="M-1421.9,377.4v26.1c0,4.2-1.3,7.4-4,9.9s-6.2,3.6-10.6,3.6c-4.5,0-8-1.2-10.7-3.6c-2.6-2.4-3.9-5.7-3.9-9.9v-26.1h6.8
		v26.1c0,2.6,0.7,4.6,2,6c1.3,1.4,3.3,2.1,5.8,2.1c5.2,0,7.8-2.8,7.8-8.3v-25.9H-1421.9z"/>
	<path d="M-1386.5,382.8h-12.2v33.6h-6.7v-33.6h-12.1v-5.5h31V382.8z"/>
	<path d="M-1358.8,399.9h-15.7v16.6h-6.8v-39.1h24.8v5.5h-18v11.6h15.7V399.9z"/>
	<path d="M-1344,416.4h-6.8v-39.1h6.8V416.4z"/>
	<path d="M-1328.9,411h17.7v5.4h-24.5v-39.1h6.8V411z"/>
	<path d="M-1283.2,382.8h-12.2v33.6h-6.7v-33.6h-12.1v-5.5h31V382.8z"/>
	<path d="M-1255.2,399h-16v12h18.8v5.4h-25.5v-39.1h25.4v5.5h-18.6v10.8h16V399z"/>
	<path d="M-1232.6,401.4h-7.6v15h-6.8v-39.1h13.7c4.5,0,8,1,10.4,3c2.5,2,3.7,5,3.7,8.8c0,2.6-0.6,4.8-1.9,6.6
		c-1.3,1.8-3,3.1-5.3,4.1l8.8,16.3v0.3h-7.3L-1232.6,401.4z M-1240.2,395.9h7c2.3,0,4.1-0.6,5.4-1.7c1.3-1.2,1.9-2.7,1.9-4.7
		c0-2.1-0.6-3.7-1.8-4.9c-1.2-1.1-3-1.7-5.3-1.8h-7.2V395.9z"/>
</g>
<path class="st7" d="M-1636.1,372.6l21,26.8c0.4,0.5,0.6,1,0.6,1.6v19.7c0,2,2,3.2,3.8,2.4l8.1-3.8c0.9-0.4,1.5-1.4,1.5-2.4V401
	c0-0.6,0.2-1.2,0.6-1.6l20.8-26.8"/>
<ellipse class="st8" cx="-1607.9" cy="369" rx="31.6" ry="8.6"/>
<path class="st1" d="M-1582.3,323.4l19.8,11.5c0.1,0.1,0.3,0.1,0.5,0.1l8.4-1.9c0.1,0,0.3,0,0.4,0l4.2,1.6c0.4,0.1,0.6,0.6,0.4,1
	l-1.6,3.1c-0.1,0.2-0.2,0.3-0.4,0.3l-9.7,3.8c-0.2,0.1-0.3,0.2-0.4,0.3l-10.3,19.6c-0.1,0.3-0.5,0.4-0.8,0.4l-1.2-0.3
	c-0.3-0.1-0.5-0.3-0.5-0.6l-0.9-14.8c0-0.4-0.4-0.7-0.8-0.6l-11.6,1.3c-0.2,0-0.4,0.2-0.5,0.4l-2.3,4.4c-0.3,0.6-1.3,0.4-1.3-0.3
	l-0.2-3.9c0-0.3-0.3-0.6-0.6-0.6l-1.6-0.2l1.2-1.4c0.2-0.2,0.2-0.5,0.1-0.8l-1.7-3.1c-0.3-0.6,0.3-1.3,0.9-0.9l4.4,2.4
	c0.2,0.1,0.4,0.1,0.6,0l10.8-4.9c0.4-0.2,0.5-0.6,0.3-1l-7.6-13.2c-0.2-0.3-0.1-0.6,0.1-0.8l0.9-0.9
	C-1582.9,323.3-1582.6,323.2-1582.3,323.4z"/>
<g>
	<path class="st1" d="M-1584.3,419c-9.9,2.5-20.9-1-28.5-7.8c-12.1-10.6-15.6-29.4-8.8-43.9c6.2-14.2,22-23.8,37.3-21.5
		c0,0,0,1.2,0,1.2c-9.4,1.4-17.6,5.9-23.3,12.4C-1626.9,382.2-1611.8,412.9-1584.3,419L-1584.3,419z"/>
</g>
<path class="st8" d="M-1576.2,369c0,4.7-14.2,8.6-31.6,8.6s-31.6-3.8-31.6-8.6"/>
<path class="st0" d="M-348,22.1l-0.7-0.3c0,0,0,0-0.1,0l-1.3,0.3c0,0-0.1,0-0.1,0l-3.1-1.8c0,0-0.1,0-0.1,0l-0.1,0.1
	c0,0,0,0.1,0,0.1l1.2,2.1c0,0.1,0,0.1,0,0.2l-1.7,0.8c0,0-0.1,0-0.1,0l-0.7-0.4c-0.1-0.1-0.2,0.1-0.1,0.1l0.2,0.4
	c-1.4,0.1-2.8,0.9-3.7,2c-2.1,0.1-4.1,0.7-4.1,1.7c0,0.1,0,0.2,0,0.3c0,0,0,0.1,0,0.1c0,0,0,0.1,0.1,0.1c0,0,0.1,0.1,0.1,0.1
	c0,0,0,0,0,0c0.1,0.1,0.3,0.2,0.4,0.3l3.2,4.1v3.1c0,0.3,0.1,0.5,0.4,0.7c0.1,0.1,0.3,0.1,0.4,0.1c0.1,0,0.2,0,0.3-0.1l1.3-0.6
	c0.3-0.1,0.5-0.4,0.5-0.7l0-2.5l3.1-4c0.1-0.1,0.2-0.1,0.3-0.2c0,0,0,0,0,0c0.1-0.1,0.1-0.1,0.2-0.2c0,0,0,0,0-0.1
	c0-0.1,0.1-0.1,0.1-0.2c0,0,0,0,0-0.1c0-0.1,0-0.2,0-0.2c0-1.1-2.6-1.7-5.1-1.7c0.6-0.7,1.4-1.2,2.4-1.5c0,0,0,0,0,0l0,0.6
	c0,0.1,0.2,0.1,0.2,0l0.4-0.7c0,0,0-0.1,0.1-0.1l1.8-0.2c0.1,0,0.1,0,0.1,0.1l0.1,2.3c0,0,0,0.1,0.1,0.1l0.2,0c0,0,0.1,0,0.1-0.1
	l1.6-3.1c0,0,0,0,0.1-0.1l1.5-0.6c0,0,0,0,0.1-0.1l0.2-0.5C-347.9,22.2-347.9,22.1-348,22.1z M-359,26.6c-0.1,0.2-0.2,0.4-0.3,0.6
	c-0.2,0.3-0.3,0.7-0.4,1c-0.1,0-0.1,0-0.2,0c-0.1,0-0.1,0-0.2,0c-0.2,0-0.3-0.1-0.5-0.1c-0.1,0-0.1,0-0.2,0c-0.1,0-0.3-0.1-0.4-0.1
	c0,0-0.1,0-0.1-0.1c0,0-0.1,0-0.1-0.1l0,0l0,0c0,0,0,0,0,0c-0.2-0.1-0.3-0.2-0.3-0.2c0,0,0-0.1-0.1-0.1c0,0,0,0,0,0
	C-361.7,27.2-360.8,26.8-359,26.6z M-353.9,28.8l-2.4,3.1c-0.1,0.1-0.2,0.3-0.2,0.5v2.5c0,0,0,0,0,0l-1.3,0.6c0,0,0,0,0,0
	c0,0,0,0,0,0v-3.1c0-0.2-0.1-0.4-0.2-0.5l-2.4-3.1c0,0,0,0,0,0c0.2,0,0.3,0.1,0.5,0.1c0,0,0.1,0,0.1,0c0,0,0,0,0.1,0
	c0.4,0.1,0.8,0.1,1.3,0.1c0,0,0,0,0,0c0,0,0,0,0,0c0.4,0,0.8,0,1.2,0c0,0,0,0,0.1,0c0.1,0,0.1,0,0.2,0c0.2,0,0.3,0,0.5,0
	c0.1,0,0.2,0,0.3,0c0.2,0,0.4,0,0.6,0c0.1,0,0.2,0,0.3,0c0.2,0,0.4,0,0.6-0.1c0.1,0,0.2,0,0.2,0C-354.3,28.9-354.2,28.9-353.9,28.8
	C-354,28.8-353.9,28.8-353.9,28.8z M-352.6,27.4c0,0,0,0.1-0.1,0.1c0,0-0.1,0-0.1,0c-0.1,0-0.1,0.1-0.2,0.1c0,0,0,0,0,0l0,0l0,0
	c0,0-0.1,0-0.1,0c-0.1,0-0.2,0.1-0.4,0.1c-0.1,0-0.1,0-0.2,0.1c-0.1,0-0.2,0.1-0.3,0.1c-0.1,0-0.2,0-0.3,0.1c-0.2,0-0.4,0.1-0.5,0.1
	c-0.1,0-0.2,0-0.2,0c-0.2,0-0.5,0.1-0.8,0.1c-0.1,0-0.1,0-0.2,0c-0.3,0-0.7,0-1.1,0c-0.4,0-0.8,0-1.2,0c0.1-0.6,0.4-1.3,0.8-1.9
	c0.1,0,0.2,0,0.4,0C-354.2,26.5-352.7,27.2-352.6,27.4z"/>
<g>
</g>
<g>
</g>
<g>
</g>
<g>
</g>
<g>
</g>
<g>
</g>
</svg>
