<svg width="24" height="29" viewBox="0 0 24 29" fill="none" xmlns="http://www.w3.org/2000/svg">
<path d="M23.3203 20.6261C22.3326 20.3248 21.4453 19.6217 20.6752 18.5167C19.9051 17.4118 19.5201 16.1562 19.5201 14.7835C19.5201 13.5112 19.8884 12.356 20.6083 11.3181C21.01 10.7321 21.6462 10.0792 22.5167 9.34263C21.9475 8.63951 21.3616 8.07031 20.7757 7.66853C19.7377 6.94866 18.5491 6.58036 17.2098 6.58036C16.3895 6.58036 15.4185 6.78125 14.3136 7.14955C13.2087 7.5346 12.4051 7.71875 11.9196 7.71875C11.5346 7.71875 10.7645 7.55134 9.60938 7.21652C8.4375 6.8817 7.46652 6.71428 6.64621 6.71428C4.72098 6.71428 3.14732 7.51786 1.89174 9.125C0.636161 10.7489 0 12.8248 0 15.3862C0 18.1317 0.837054 20.9275 2.46094 23.8069C4.1183 26.6864 5.77567 28.1429 7.5 28.1429C8.05246 28.1429 8.78906 27.9587 9.70982 27.5737C10.6138 27.2054 11.4174 27.0212 12.0871 27.0212C12.7734 27.0212 13.6272 27.1886 14.615 27.5569C15.6194 27.9085 16.3895 28.0926 16.9587 28.0926C18.3817 28.0926 19.8214 27.0045 21.2612 24.8114C22.2321 23.3549 22.9018 21.9487 23.3203 20.6261ZM17.0257 0.988839C17.0257 0.871652 17.0089 0.771205 17.0089 0.654017C16.9922 0.55357 16.9587 0.436383 16.9252 0.285712C14.9833 0.737722 13.577 1.55803 12.74 2.76339C11.9029 3.96875 11.4676 5.40848 11.4342 7.06585C12.221 6.99888 12.7902 6.89844 13.1752 6.78125C13.7779 6.58036 14.3806 6.17857 14.9833 5.57589C15.6864 4.87277 16.2054 4.10268 16.5402 3.26562C16.8583 2.44531 17.0257 1.67522 17.0257 0.988839Z" fill="#051036"/>
</svg>
