<svg xmlns="http://www.w3.org/2000/svg" width="60" height="60" viewBox="0 0 60 60" fill="none">
  <path d="M37.0928 12.171C36.9894 11.8528 36.7144 11.6209 36.3832 11.5729L32.5168 11.0111L30.7877 7.50754C30.6397 7.20754 30.3342 7.01758 29.9996 7.01758C29.6652 7.01758 29.3596 7.20754 29.2114 7.50754L27.4823 11.0111L23.616 11.5729C23.2849 11.6209 23.0099 11.8528 22.9065 12.171C22.8032 12.4892 22.8894 12.8385 23.1289 13.0719L25.9267 15.799L25.2662 19.6498C25.2097 19.9796 25.3452 20.3128 25.6159 20.5094C25.8865 20.706 26.2453 20.732 26.5414 20.5763L29.9996 18.7581L33.4577 20.5763C33.5864 20.6439 33.7268 20.6772 33.8666 20.6772C34.0488 20.6772 34.2302 20.6206 34.3833 20.5094C34.654 20.3127 34.7896 19.9794 34.7329 19.6498L34.0725 15.799L36.8702 13.0719C37.11 12.8385 37.1961 12.4893 37.0928 12.171ZM32.5148 14.8629C32.3077 15.0648 32.2132 15.3558 32.2622 15.6408L32.6995 18.1919L30.4086 16.9874C30.2807 16.9202 30.1402 16.8865 29.9996 16.8865C29.8591 16.8865 29.7186 16.9202 29.5907 16.9874L27.2998 18.1919L27.7373 15.6409C27.7862 15.3558 27.6918 15.0648 27.4846 14.8629L25.6312 13.0564L28.1925 12.6842C28.4788 12.6426 28.7262 12.4628 28.8543 12.2034L29.9996 9.88246L31.145 12.2034C31.2731 12.4627 31.5205 12.6426 31.8068 12.6842L34.368 13.0564L32.5148 14.8629Z" fill="white"/>
  <path d="M40.935 11.2437H40.7362C40.2507 11.2437 39.8573 11.6372 39.8573 12.1226C39.8573 12.6079 40.2508 13.0015 40.7362 13.0015H40.935C41.4205 13.0015 41.8139 12.6079 41.8139 12.1226C41.8139 11.6372 41.4205 11.2437 40.935 11.2437Z" fill="white"/>
  <path d="M40.935 14.6938H40.7362C40.2507 14.6938 39.8573 15.0874 39.8573 15.5728C39.8573 16.0581 40.2508 16.4517 40.7362 16.4517H40.935C41.4205 16.4517 41.8139 16.0581 41.8139 15.5728C41.8139 15.0874 41.4205 14.6938 40.935 14.6938Z" fill="white"/>
  <path d="M19.2632 11.2437H19.0643C18.5789 11.2437 18.1854 11.6372 18.1854 12.1226C18.1854 12.6079 18.5789 13.0015 19.0643 13.0015H19.2632C19.7486 13.0015 20.1421 12.6079 20.1421 12.1226C20.1421 11.6372 19.7486 11.2437 19.2632 11.2437Z" fill="white"/>
  <path d="M19.2632 14.6938H19.0643C18.5789 14.6938 18.1854 15.0874 18.1854 15.5728C18.1854 16.0581 18.5789 16.4517 19.0643 16.4517H19.2632C19.7486 16.4517 20.1421 16.0581 20.1421 15.5728C20.1421 15.0874 19.7486 14.6938 19.2632 14.6938Z" fill="white"/>
  <path d="M55.6387 28.5525C55.3262 28.3812 54.9949 28.2756 54.6597 28.2323V13.9031C54.6597 11.9834 53.0978 10.4215 51.178 10.4215H50.1526V2.95781C50.1528 1.32691 48.8254 0 47.1938 0H12.8051C11.1742 0 9.84727 1.32691 9.84727 2.95781V5.05898C9.84727 5.54437 10.2408 5.93789 10.7262 5.93789C11.2116 5.93789 11.6051 5.54437 11.6051 5.05898V2.95781C11.6051 2.29617 12.1434 1.75781 12.8051 1.75781H47.1938C47.8561 1.75781 48.3949 2.29617 48.3949 2.95781V31.4843L30.3081 43.0229C29.9833 43.23 29.565 43.2284 29.242 43.0186L11.6051 31.5671V8.61328C11.6051 8.12789 11.2116 7.73437 10.7262 7.73437C10.2408 7.73437 9.84727 8.12789 9.84727 8.61328V10.4215H8.82188C6.90211 10.4215 5.34024 11.9834 5.34024 13.9031V28.2697C5.00614 28.3114 4.67719 28.4136 4.37098 28.5798C3.48657 29.06 2.93707 29.9836 2.93707 30.99V57.2572C2.93707 58.7695 4.16742 59.9999 5.67973 59.9999H6.85547C7.34086 59.9999 7.73438 59.6064 7.73438 59.121C7.73438 58.6356 7.34086 58.2421 6.85547 58.2421H5.67985C5.1368 58.2421 4.695 57.8003 4.695 57.2572V30.9901C4.695 30.6232 4.88754 30.2996 5.20993 30.1246C5.53243 29.9496 5.90848 29.9643 6.2161 30.1641L28.2847 44.4929C29.1839 45.0769 30.3493 45.0816 31.2535 44.5049L53.7905 30.1273C54.098 29.931 54.4731 29.9183 54.7936 30.094C55.1138 30.2695 55.305 30.5924 55.305 30.9577V49.4338C55.305 49.9192 55.6984 50.3127 56.1839 50.3127C56.6694 50.3127 57.0628 49.9192 57.0628 49.4338V30.9575C57.063 29.9405 56.5306 29.0414 55.6387 28.5525ZM9.84727 30.4259L7.1734 28.6897C7.14868 28.6737 7.12313 28.6596 7.09805 28.6444V13.9031C7.09805 12.9526 7.87137 12.1793 8.82188 12.1793H9.84727V30.4259ZM52.902 28.6116C52.8831 28.623 52.8638 28.6334 52.8451 28.6453L50.1528 30.3629V12.1793H51.1781C52.1287 12.1793 52.902 12.9526 52.902 13.9031V28.6116Z" fill="white"/>
  <path d="M56.184 52.1094C55.6985 52.1094 55.3051 52.5029 55.3051 52.9883V57.2574C55.3051 57.8005 54.8632 58.2423 54.3203 58.2423H10.4101C9.92473 58.2423 9.53122 58.6358 9.53122 59.1212C9.53122 59.6066 9.92473 60.0001 10.4101 60.0001H54.3203C55.8326 60.0001 57.0629 58.7697 57.0629 57.2574V52.9883C57.0629 52.5029 56.6694 52.1094 56.184 52.1094Z" fill="white"/>
  <path d="M35.5001 24.9126H24.4998C24.0144 24.9126 23.6209 25.3061 23.6209 25.7915C23.6209 26.2769 24.0144 26.6704 24.4998 26.6704H35.5001C35.9856 26.6704 36.379 26.2769 36.379 25.7915C36.379 25.3061 35.9856 24.9126 35.5001 24.9126Z" fill="white"/>
  <path d="M40.3638 29.3711H19.6362C19.1508 29.3711 18.7573 29.7646 18.7573 30.25C18.7573 30.7354 19.1508 31.1289 19.6362 31.1289H40.3638C40.8493 31.1289 41.2427 30.7354 41.2427 30.25C41.2427 29.7646 40.8493 29.3711 40.3638 29.3711Z" fill="white"/>
  <path d="M40.3638 32.2788H19.6362C19.1508 32.2788 18.7573 32.6723 18.7573 33.1577C18.7573 33.6431 19.1508 34.0366 19.6362 34.0366H40.3638C40.8493 34.0366 41.2427 33.6431 41.2427 33.1577C41.2427 32.6723 40.8493 32.2788 40.3638 32.2788Z" fill="white"/>
  <path d="M35.4036 35.1865H24.5965C24.1111 35.1865 23.7176 35.58 23.7176 36.0654C23.7176 36.5508 24.1111 36.9443 24.5965 36.9443H35.4036C35.8892 36.9443 36.2826 36.5508 36.2826 36.0654C36.2826 35.58 35.8892 35.1865 35.4036 35.1865Z" fill="white"/>
</svg>