<svg width="16" height="16" viewBox="0 0 16 16" fill="none" xmlns="http://www.w3.org/2000/svg">
<g clip-path="url(#clip0_82_524)">
<path d="M14.073 11.7171C14.7594 10.5988 15.1218 9.31206 15.12 8.00001L15.12 7.99989L15.12 7.99976C15.1218 6.68771 14.7594 5.4009 14.073 4.28269L14.0691 4.27658C13.4323 3.23873 12.54 2.3815 11.4775 1.78682C10.415 1.19215 9.21766 0.879888 8.00003 0.879883C6.7824 0.879878 5.58511 1.19213 4.52256 1.7868C3.46002 2.38146 2.56772 3.23868 1.93094 4.27654L1.92699 4.28272C1.24232 5.4017 0.88001 6.68804 0.880005 7.99987C0.88 9.31169 1.2423 10.598 1.92696 11.717L1.93098 11.7233C2.56776 12.7611 3.46006 13.6183 4.52259 14.213C5.58513 14.8076 6.78241 15.1199 8.00003 15.1199C9.21765 15.1199 10.4149 14.8076 11.4775 14.213C12.54 13.6183 13.4323 12.7611 14.069 11.7232L14.073 11.7171ZM8.9101 13.8996C8.77443 14.0305 8.61827 14.1384 8.4478 14.2189C8.30788 14.2854 8.15491 14.3199 8 14.3199C7.84509 14.3199 7.69212 14.2854 7.5522 14.2189C7.2278 14.0532 6.95011 13.8088 6.74451 13.5081C6.32461 12.9014 6.01344 12.2262 5.82489 11.5128C6.54919 11.4683 7.27423 11.4456 8.00001 11.4447C8.72547 11.4447 9.45055 11.4674 10.1752 11.5128C10.0709 11.8796 9.94052 12.2385 9.78516 12.5868C9.58058 13.0766 9.28347 13.5223 8.9101 13.8996V13.8996ZM1.69393 8.39989H4.56577C4.58446 9.20124 4.67132 9.99954 4.8254 10.7862C4.04036 10.8552 3.25731 10.9501 2.47627 11.0708C2.01891 10.2503 1.75156 9.33752 1.69393 8.39989ZM2.47627 4.92897C3.257 5.04995 4.04032 5.14486 4.82623 5.21368C4.67184 6.00024 4.58479 6.79853 4.56602 7.59989H1.69393C1.75155 6.66226 2.01891 5.74952 2.47626 4.92897H2.47627ZM7.0899 2.10015C7.22557 1.96923 7.38173 1.86138 7.5522 1.78085C7.69212 1.71437 7.84509 1.67987 8 1.67987C8.15491 1.67987 8.30788 1.71437 8.4478 1.78085C8.7722 1.94655 9.04989 2.19092 9.25549 2.49162C9.67539 3.09838 9.98656 3.77354 10.1751 4.48693C9.4508 4.5315 8.72577 4.5542 8.00001 4.55504C7.27454 4.55503 6.54946 4.53232 5.82476 4.48692C5.92913 4.12013 6.05948 3.76124 6.21485 3.41297C6.41942 2.92318 6.71653 2.47743 7.0899 2.10015ZM14.3061 7.59989H11.4342C11.4155 6.79854 11.3287 6.00023 11.1746 5.21361C11.9597 5.14453 12.7427 5.04964 13.5237 4.92897C13.9811 5.74951 14.2485 6.66225 14.3061 7.59989ZM5.63002 10.724C5.47357 9.95859 5.38521 9.18086 5.36597 8.39989H10.6341C10.6151 9.18085 10.5269 9.95859 10.3706 10.724C9.58124 10.6722 8.79105 10.6458 8.00001 10.6447C7.20953 10.6447 6.41953 10.6711 5.63002 10.724ZM10.37 5.2758C10.5264 6.04118 10.6148 6.81892 10.634 7.59989H5.36588C5.38494 6.81892 5.47314 6.04117 5.62945 5.27576C6.41876 5.32755 7.20895 5.35397 8.00001 5.35503C8.79048 5.35503 9.58048 5.32862 10.37 5.2758V5.2758ZM11.434 8.39989H14.3061C14.2485 9.33752 13.9811 10.2503 13.5237 11.0708C12.743 10.9498 11.9597 10.8549 11.1738 10.7861C11.3282 9.99953 11.4152 9.20124 11.434 8.39989ZM13.0441 4.19265C12.3615 4.29114 11.6768 4.36911 10.9901 4.42657C10.8667 3.96706 10.7075 3.51792 10.514 3.08324C10.3374 2.68323 10.1151 2.30498 9.85166 1.95599C11.1249 2.34648 12.2422 3.12929 13.0441 4.19265ZM3.53107 3.53095C4.26146 2.79987 5.16003 2.25911 6.14801 1.95609C6.13302 1.9755 6.1176 1.99405 6.10283 2.01387C5.59501 2.74491 5.2251 3.56262 5.01137 4.42669C4.32463 4.36853 3.63949 4.29051 2.95594 4.19265C3.13223 3.95914 3.32439 3.73805 3.53107 3.53095ZM2.95593 11.8071C3.63854 11.7086 4.32319 11.6306 5.0099 11.5732C5.13332 12.0327 5.29249 12.4819 5.48597 12.9165C5.66262 13.3165 5.88488 13.6948 6.14834 14.0438C4.87509 13.6533 3.75777 12.8705 2.95593 11.8071V11.8071ZM12.4689 12.4688C11.7386 13.1999 10.84 13.7407 9.85199 14.0437C9.86698 14.0243 9.88239 14.0057 9.89717 13.9859C10.405 13.2549 10.7749 12.4371 10.9886 11.5731C11.6754 11.6312 12.3605 11.7093 13.0441 11.8071C12.8678 12.0406 12.6756 12.2617 12.4689 12.4688V12.4688Z" fill="#051036"/>
</g>
<defs>
<clipPath id="clip0_82_524">
<rect width="16" height="16" fill="white"/>
</clipPath>
</defs>
</svg>
