<?xml version="1.0" encoding="utf-8"?>
<!-- Generator: Adobe Illustrator 28.1.0, SVG Export Plug-In . SVG Version: 6.00 Build 0)  -->
<svg version="1.1" id="Layer_1" xmlns="http://www.w3.org/2000/svg" xmlns:xlink="http://www.w3.org/1999/xlink" x="0px" y="0px"
	 viewBox="0 0 14.6 16" style="enable-background:new 0 0 14.6 16;" xml:space="preserve">
<style type="text/css">
	.st0{fill:#3554D1;}
	.st1{fill:#0D2857;}
	.st2{fill:#FFFFFF;stroke:#3554D1;stroke-width:2.1835;stroke-miterlimit:10;}
	.st3{fill:none;stroke:#3554D1;stroke-width:2.1835;stroke-miterlimit:10;}
	.st4{fill:#FFFFFF;}
	.st5{fill:#F1F2F2;}
	.st6{fill:#FFFFFF;stroke:#3554D1;stroke-width:4.8008;stroke-miterlimit:10;}
	.st7{fill:none;stroke:#3554D1;stroke-width:4.8008;stroke-miterlimit:10;}
</style>
<g>
	<g>
		<path class="st0" d="M1.2,7.5C1.2,7.5,1.2,7.5,1.2,7.5L1.2,7.5L1.2,7.5z"/>
	</g>
	<g>
		<path class="st0" d="M5.3,8.9C2.8,8.9,0,8.3,0,7.1s2.8-1.7,5.3-1.7s5.3,0.5,5.3,1.7S7.9,8.9,5.3,8.9z M5.3,6.2
			c-2.9,0-4.5,0.7-4.6,1c0,0.3,1.6,1,4.6,1c2.9,0,4.5-0.7,4.6-1C9.8,6.9,8.3,6.2,5.3,6.2z"/>
	</g>
	<path class="st0" d="M14.5,1.8l-0.7-0.3c0,0,0,0-0.1,0l-1.3,0.3c0,0-0.1,0-0.1,0L9.3,0c0,0-0.1,0-0.1,0L9,0.2c0,0,0,0.1,0,0.1
		l1.2,2.1c0,0.1,0,0.1,0,0.2L8.5,3.3c0,0-0.1,0-0.1,0L7.7,2.9C7.6,2.9,7.5,3,7.5,3l0.2,0.4C5.8,3.7,4,5,3.2,6.9
		C3,7.3,2.8,7.8,2.7,8.3C3.1,8.4,3.6,8.4,4,8.4c0.1-1,0.6-1.9,1.3-2.8C6,4.9,6.9,4.3,7.9,4c0,0,0,0,0,0l0,0.6c0,0.1,0.2,0.1,0.2,0
		L8.5,4c0,0,0-0.1,0.1-0.1l1.8-0.2c0.1,0,0.1,0,0.1,0.1l0.1,2.3c0,0,0,0.1,0.1,0.1l0.2,0c0,0,0.1,0,0.1-0.1l1.6-3.1c0,0,0,0,0.1-0.1
		l1.5-0.6c0,0,0,0,0.1-0.1l0.2-0.5C14.6,1.9,14.6,1.8,14.5,1.8z"/>
	<g>
		<path class="st0" d="M9.9,7.1c0,0.1-0.2,0.2-0.4,0.3l0,0l0,0l0,0C9.2,7.6,9.1,7.6,8.8,7.7c-0.8,0.2-2,0.4-3.5,0.4
			c-0.4,0-0.8,0-1.2,0C3.6,8,3.2,8,2.8,7.9c-0.4-0.1-0.7-0.1-1-0.2C1.6,7.6,1.4,7.6,1.2,7.5c0,0,0,0,0,0C0.9,7.3,0.8,7.2,0.8,7.1H0
			c0,0.4,0.3,0.7,0.7,0.9l3.2,4.1v3.1c0,0.3,0.1,0.5,0.4,0.7C4.4,16,4.6,16,4.7,16c0.1,0,0.2,0,0.3-0.1l1.3-0.6
			c0.3-0.1,0.5-0.4,0.5-0.7l0-2.5l3.1-4c0.4-0.2,0.7-0.5,0.7-0.9H9.9z M6.2,11.7C6.1,11.8,6,12,6,12.1v2.5c0,0,0,0,0,0l-1.3,0.6
			c0,0,0,0,0,0c0,0,0,0,0,0v-3.1c0-0.2-0.1-0.4-0.2-0.5L2,8.5c0.2,0,0.4,0.1,0.6,0.1C3.1,8.7,3.6,8.8,4,8.8c0.4,0,0.8,0,1.3,0
			c1.1,0,2.3-0.1,3.3-0.3L6.2,11.7z"/>
	</g>
</g>
</svg>
